<svg id="Layer_1" data-name="Layer 1" xmlns="http://www.w3.org/2000/svg" width="324.5887" height="289.8589" viewBox="0 0 324.5887 289.8589">
  <defs>
    <style>
      .cls-1 {
        fill: #f4ba38;
      }

      .cls-2 {
        fill: #141516;
      }
    </style>
  </defs>
  <g>
    <path class="cls-1" d="M183.7556,304.0749c-37.8389-.0781-72.6343-11.4775-97.9829-32.1-25.7544-20.9521-39.9307-50.3281-39.917-82.7177a115.0635,115.0635,0,0,1,.7763-13.3409l.0723-.6206L26.7165,24.9124,129.56,67.6208l1.92-.8007a134.371,134.371,0,0,1,51.9834-10.4654h.583A134.3,134.3,0,0,1,236.03,66.82l1.9209.8017L340.7863,24.9124,320.8078,175.3313l.0708.6162a116.7863,116.7863,0,0,1,.7671,13.3081c.0137,32.3926-14.1606,61.7686-39.9116,82.72C256.3879,292.5974,221.594,303.9968,183.7556,304.0749Z" transform="translate(-21.4568 -19.2164)"/>
    <g>
      <path class="cls-2" d="M342.2216,19.2164a3.8359,3.8359,0,0,0-1.4751.2986l-102.7907,42.69a139.6455,139.6455,0,0,0-53.909-10.85c-.096,0-.1949,0-.291,0s-.1938,0-.291,0a139.6934,139.6934,0,0,0-53.909,10.85l-102.8-42.69a3.8192,3.8192,0,0,0-5.2639,4.04l20.1741,151.78a119.6712,119.6712,0,0,0-.81,13.92,114.9782,114.9782,0,0,0,1.0263,15.4094,107.4331,107.4331,0,0,0,7.8149,28.3023c20.1274,46.6517,72.4371,75.9838,134.0588,76.1084,61.6241-.1246,113.93-29.459,134.0525-76.1139a107.4386,107.4386,0,0,0,7.812-28.3024,114.9978,114.9978,0,0,0,1.0255-15.4038,121.2116,121.2116,0,0,0-.8-13.88l20.1648-151.82A3.8348,3.8348,0,0,0,342.2216,19.2164ZM311.7963,167.2272a37.4223,37.4223,0,0,0-4.1007-3.7743c1.9577,8.64,3.4919,16.576,3.929,24.3513.0068.4858.0212.973.0212,1.4573.0125,29.7467-12.5131,55.6665-36.2229,74.9572-22.4275,18.2472-52.9947,28.724-86.5289,29.7638V229.1748l20.5165-20.5165a2.3521,2.3521,0,0,0-1.6632-4.0154H159.755a2.3522,2.3522,0,0,0-1.6633,4.0154l20.5166,20.5166v64.8074c-33.5316-1.0415-64.0972-11.5182-86.5251-29.764-23.7127-19.2912-36.24-45.2109-36.2274-74.9631,0-.476.0143-.9532.0209-1.43.4355-7.782,1.9706-15.7244,3.93-24.3724a37.4175,37.4175,0,0,0-4.0885,3.7608L38.9167,40.8071l84.8864,35.2512,1.8031.7488a47.387,47.387,0,0,0-3.818,5.0664q3.9021-1.8071,7.7341-3.44l.0463.0192,4.8729-2.0326a153.9043,153.9043,0,0,1,18.36-6.0653A144.758,144.758,0,0,1,168.25,67.3309c2.5926-.2533,5.1546-.6352,7.7485-.7238.503-.0486,1.0069-.0785,1.5108-.1077q1.3866-.0662,2.7766-.1031c.1676-.0032.3352-.0056.5029-.0083.8912-.019,1.7829-.0331,2.676-.0331l.2554,0,.0359,0,.0357,0,.255,0c.95,0,1.8986.0136,2.8463.0352.1059.0029.2121.0023.318.0056.348.0088.6949.027,1.0425.0387a126.2761,126.2761,0,0,1,26.4494,3.9283,157.1257,157.1257,0,0,1,18.7916,6.2347l4.4469,1.8561.0373-.0155q3.8371,1.6281,7.7353,3.4355a47.3045,47.3045,0,0,0-3.8036-5.0684l1.7985-.747,84.8785-35.251Z" transform="translate(-21.4568 -19.2164)"/>
      <rect class="cls-2" x="121.0661" y="182.8949" width="4.9991" height="62.4089" transform="translate(-133.7765 268.8093) rotate(-77.4099)"/>
      <rect class="cls-2" x="96.0133" y="242.3307" width="62.4089" height="5.0002" transform="translate(-75.9045 17.9508) rotate(-13.7226)"/>
      <rect class="cls-2" x="212.7323" y="211.5998" width="62.4089" height="4.9991" transform="translate(-62.2644 39.1128) rotate(-12.5919)"/>
      <rect class="cls-2" x="237.7845" y="213.6264" width="5.0002" height="62.4089" transform="translate(-76.015 400.9613) rotate(-76.2774)"/>
      <circle class="cls-2" cx="225.9993" cy="131.0118" r="29.2315"/>
      <ellipse class="cls-2" cx="120.0463" cy="150.2283" rx="29.2658" ry="29.1905" transform="translate(-92.5435 109.8502) rotate(-45.054)"/>
    </g>
  </g>
</svg>
